<svg xmlns="http://www.w3.org/2000/svg" xmlns:xlink="http://www.w3.org/1999/xlink" viewBox="0 0 203 113"><use xlink:href="#arknights-logo" fill="#ffffff"><path id="arknights-logo" d="M183.779,51.519 C183.300,51.374 182.822,51.225 182.343,51.078 C182.240,51.046 182.136,51.017 182.033,50.986 C181.515,50.831 180.999,50.667 180.489,50.493 C179.977,50.319 179.456,50.174 178.949,49.984 C178.696,49.889 178.432,49.827 178.175,49.745 C177.853,49.642 177.535,49.528 177.213,49.430 C175.837,49.012 174.481,48.537 173.110,48.107 C172.838,48.021 172.572,47.918 172.300,47.831 C172.042,47.749 171.781,47.679 171.520,47.605 C171.468,47.590 171.412,47.585 171.362,47.565 C170.365,47.178 169.331,46.903 168.319,46.563 C168.114,46.495 167.909,46.425 167.678,46.347 L167.634,44.479 C167.748,44.500 167.870,44.509 167.981,44.547 C168.288,44.650 168.588,44.771 168.895,44.875 C169.125,44.953 169.361,45.012 169.592,45.085 C169.915,45.186 170.235,45.293 170.557,45.397 C171.316,45.640 172.074,45.885 172.833,46.125 C173.233,46.252 173.634,46.375 174.033,46.501 C174.418,46.621 174.803,46.752 175.187,46.882 C176.056,47.179 176.926,47.472 177.805,47.737 C178.257,47.873 178.705,48.023 179.157,48.159 C179.624,48.300 180.087,48.456 180.550,48.611 C181.001,48.761 181.447,48.925 181.899,49.071 C182.079,49.129 182.272,49.145 182.451,49.203 C182.940,49.358 183.426,49.524 183.912,49.688 C183.949,49.700 183.981,49.727 184.023,49.752 C184.023,50.344 184.023,50.937 184.023,51.557 C183.929,51.543 183.851,51.541 183.779,51.519 ZM155.934,43.897 C155.699,44.217 155.413,44.498 155.066,44.721 C154.814,44.882 154.554,45.038 154.281,45.132 C153.761,45.310 153.223,45.367 152.695,45.112 C152.478,45.007 152.311,44.858 152.194,44.653 C152.121,44.524 152.050,44.391 152.002,44.251 C151.844,43.791 151.658,43.338 151.607,42.848 C151.599,42.770 151.562,42.694 151.536,42.617 C151.511,42.540 151.469,42.467 151.457,42.388 C151.347,41.646 151.043,40.960 150.840,40.245 C150.574,39.307 150.256,38.384 150.002,37.444 C149.829,36.805 149.619,36.179 149.428,35.546 C149.346,35.276 149.272,35.002 149.184,34.734 C149.109,34.504 149.021,34.278 148.936,34.053 C148.775,33.626 148.612,33.199 148.450,32.773 C148.469,32.751 148.489,32.730 148.509,32.709 C148.685,32.799 148.864,32.884 149.037,32.982 C149.293,33.126 149.540,33.284 149.808,33.407 C149.978,33.485 150.129,33.599 150.292,33.690 C151.115,34.148 151.932,34.616 152.671,35.209 C152.918,35.408 153.152,35.633 153.441,35.782 C153.497,35.812 153.536,35.877 153.581,35.927 C153.636,35.987 153.677,36.075 153.745,36.106 C154.018,36.228 154.178,36.470 154.371,36.673 C154.833,37.157 155.266,37.667 155.624,38.233 C155.796,38.505 155.962,38.786 156.085,39.083 C156.240,39.458 156.351,39.850 156.472,40.238 C156.504,40.339 156.505,40.450 156.518,40.557 C156.547,40.812 156.578,41.067 156.601,41.322 C156.610,41.415 156.608,41.511 156.600,41.605 C156.560,42.048 156.533,42.492 156.396,42.922 C156.286,43.269 156.145,43.609 155.934,43.897 ZM166.223,33.558 C166.163,33.741 166.142,33.926 166.141,34.117 C166.140,34.251 166.113,34.384 166.099,34.517 C166.089,34.611 166.078,34.705 166.074,34.799 C166.065,35.068 166.089,35.336 166.013,35.604 C165.975,35.742 166.003,35.900 166.003,36.049 L166.003,63.641 C166.003,63.817 166.003,63.992 166.003,64.133 C165.873,64.300 165.771,64.441 165.660,64.573 C165.375,64.910 165.091,65.250 164.828,65.601 C164.477,66.070 164.086,66.507 163.745,66.984 C163.475,67.362 163.153,67.706 162.864,68.073 C162.484,68.555 162.110,69.042 161.727,69.522 C161.511,69.792 161.281,70.052 161.061,70.319 C160.857,70.567 160.664,70.824 160.458,71.072 C160.305,71.255 160.156,71.445 160.012,71.637 C159.916,71.766 159.807,71.886 159.717,72.019 C159.528,72.295 159.311,72.549 159.092,72.800 C158.908,73.011 158.755,73.247 158.580,73.466 C158.448,73.631 158.276,73.752 158.176,73.947 C158.062,73.839 158.141,73.748 158.160,73.669 C158.215,73.442 158.275,73.219 158.114,73.009 C157.963,72.343 157.584,71.782 157.264,71.196 C157.195,71.069 157.077,70.969 156.982,70.858 C156.894,70.755 156.805,70.652 156.716,70.550 C156.628,70.449 156.544,70.345 156.450,70.250 C156.365,70.164 156.271,70.092 156.220,69.972 C156.184,69.890 156.103,69.826 156.036,69.761 C155.900,69.631 155.742,69.527 155.670,69.336 C155.640,69.257 155.540,69.203 155.469,69.140 C155.377,69.059 155.276,68.987 155.241,68.861 C155.233,68.836 155.220,68.805 155.200,68.792 C154.920,68.614 154.795,68.292 154.542,68.088 C154.448,68.012 154.352,67.937 154.318,67.808 C154.305,67.761 154.257,67.720 154.217,67.684 C154.069,67.547 153.899,67.433 153.824,67.229 C153.803,67.172 153.729,67.135 153.680,67.088 C153.545,66.959 153.381,66.859 153.312,66.665 C153.284,66.585 153.188,66.524 153.114,66.466 C152.895,66.298 152.755,66.066 152.594,65.851 C152.566,65.814 152.559,65.760 152.541,65.708 C152.590,65.704 152.618,65.693 152.636,65.702 C152.870,65.809 153.105,65.915 153.335,66.031 C154.023,66.376 154.701,66.744 155.400,67.067 C155.915,67.304 156.456,67.486 156.986,67.692 C157.163,67.761 157.343,67.822 157.516,67.900 C157.993,68.114 158.495,68.212 159.015,68.229 C159.262,68.237 159.747,68.019 159.900,67.798 C160.014,67.632 160.122,67.451 160.178,67.261 C160.263,66.977 160.328,66.681 160.351,66.387 C160.388,65.929 160.392,65.467 160.392,65.007 C160.391,64.330 160.368,63.653 160.367,62.976 C160.365,59.332 160.366,55.688 160.366,52.044 C160.366,51.842 160.355,51.645 160.302,51.443 C160.210,51.100 160.028,50.855 159.733,50.650 C159.395,50.417 159.026,50.273 158.644,50.145 C158.401,50.063 158.159,49.977 157.914,49.898 C156.713,49.510 155.496,49.174 154.305,48.759 C153.458,48.464 152.602,48.193 151.751,47.911 C151.313,47.766 150.878,47.614 150.439,47.475 C150.065,47.355 149.686,47.252 149.311,47.136 C149.003,47.041 148.703,46.909 148.388,46.845 C147.945,46.754 147.550,46.529 147.110,46.435 C146.908,46.391 146.715,46.363 146.515,46.461 C146.319,46.557 146.195,46.720 146.102,46.894 C145.994,47.093 145.917,47.312 145.921,47.552 C145.926,47.782 145.913,48.012 145.903,48.242 C145.894,48.471 145.915,48.703 145.828,48.925 C145.819,48.949 145.820,48.978 145.819,49.005 C145.794,49.407 145.775,49.811 145.743,50.214 C145.725,50.429 145.676,50.641 145.653,50.856 C145.602,51.326 145.563,51.799 145.512,52.270 C145.466,52.686 145.424,53.105 145.354,53.517 C145.243,54.167 145.113,54.813 144.984,55.459 C144.896,55.896 144.827,56.339 144.693,56.761 C144.563,57.172 144.514,57.606 144.326,57.999 C144.308,58.035 144.290,58.073 144.282,58.112 C144.121,58.870 143.778,59.562 143.475,60.266 C143.273,60.735 143.030,61.189 142.763,61.625 C142.421,62.182 142.084,62.747 141.626,63.224 C141.516,63.493 141.224,63.620 141.110,63.890 C141.076,63.969 140.974,64.018 140.906,64.085 C140.770,64.217 140.638,64.353 140.501,64.484 C140.433,64.548 140.357,64.603 140.283,64.660 C140.241,64.692 140.185,64.713 140.153,64.752 C139.941,65.018 139.647,65.187 139.392,65.402 C138.939,65.784 138.450,66.111 137.959,66.438 C137.621,66.662 137.261,66.842 136.881,66.982 C136.660,67.063 136.560,67.058 136.271,66.999 C136.299,66.936 136.319,66.874 136.351,66.819 C136.701,66.214 137.055,65.611 137.402,65.005 C137.462,64.901 137.502,64.784 137.548,64.671 C137.751,64.173 137.959,63.676 138.152,63.174 C138.316,62.748 138.507,62.330 138.571,61.871 C138.597,61.684 138.666,61.508 138.749,61.335 C138.943,60.931 139.069,60.504 139.128,60.057 C139.148,59.897 139.182,59.737 139.223,59.580 C139.460,58.677 139.703,57.775 139.938,56.871 C139.975,56.728 139.994,56.578 140.007,56.430 C140.072,55.702 140.130,54.973 140.196,54.244 C140.212,54.070 140.248,53.898 140.275,53.725 C140.283,53.672 140.293,53.619 140.296,53.565 C140.327,53.026 140.396,52.493 140.476,51.959 C140.537,51.546 140.540,51.122 140.551,50.703 C140.561,50.297 140.539,49.890 140.549,49.484 C140.558,49.161 140.595,48.838 140.616,48.515 C140.624,48.394 140.622,48.271 140.625,48.150 C140.632,47.921 140.599,47.689 140.683,47.466 C140.701,47.418 140.693,47.359 140.692,47.305 C140.678,46.560 140.660,45.815 140.649,45.071 C140.643,44.712 140.445,44.482 140.172,44.279 C139.842,44.033 139.463,43.900 139.083,43.766 C138.572,43.586 138.058,43.412 137.546,43.235 C137.508,43.222 137.467,43.214 137.429,43.203 C136.856,43.037 136.283,42.872 135.712,42.706 C135.660,42.690 135.612,42.663 135.551,42.636 C135.501,42.317 135.518,41.997 135.539,41.644 C135.682,41.673 135.801,41.686 135.912,41.721 C136.701,41.969 137.487,42.224 138.275,42.471 C138.571,42.565 138.871,42.643 139.169,42.729 C139.247,42.751 139.324,42.776 139.401,42.804 C139.503,42.841 139.604,42.880 139.704,42.922 C140.083,43.086 140.417,43.059 140.693,42.665 C140.693,42.036 140.693,41.373 140.693,40.710 C140.693,40.060 140.693,39.410 140.693,38.759 C140.693,38.095 140.693,37.432 140.693,36.768 C140.693,36.105 140.693,35.441 140.693,34.777 C140.693,34.113 140.693,33.450 140.693,32.786 C140.693,32.136 140.693,31.486 140.693,30.835 C140.693,30.172 140.693,29.508 140.693,28.844 C140.693,28.180 140.693,27.517 140.693,26.853 C140.693,26.203 140.692,25.553 140.693,24.903 C140.694,24.243 140.688,23.584 140.697,22.947 C140.807,22.884 140.873,22.902 140.915,22.962 C141.140,23.279 141.433,23.540 141.654,23.862 C141.789,24.059 141.976,24.219 142.132,24.402 C142.296,24.595 142.445,24.799 142.609,24.992 C142.757,25.164 142.894,25.348 143.048,25.511 C143.334,25.813 143.549,26.174 143.866,26.446 C144.048,26.846 144.482,27.000 144.734,27.332 C144.956,27.402 145.080,27.586 145.215,27.752 C145.337,27.902 145.560,27.924 145.649,28.109 C146.036,28.371 146.373,28.713 146.874,28.783 C147.376,28.854 147.811,28.604 147.919,28.118 C147.988,27.803 148.056,27.487 148.044,27.156 C148.032,26.832 148.068,26.507 148.083,26.183 C148.084,26.170 148.091,26.155 148.087,26.144 C147.979,25.720 148.098,25.280 147.991,24.857 C147.975,24.792 147.973,24.723 147.970,24.656 C147.938,23.940 147.908,23.225 147.874,22.509 C147.862,22.254 147.875,21.998 147.796,21.745 C147.758,21.621 147.785,21.477 147.782,21.342 C147.777,21.140 147.793,20.939 147.727,20.739 C147.690,20.628 147.714,20.498 147.710,20.376 C147.705,20.148 147.709,19.925 147.641,19.696 C147.569,19.454 147.629,19.192 147.612,18.906 C147.708,18.930 147.768,18.928 147.803,18.957 C148.280,19.343 148.727,19.763 149.234,20.114 C149.441,20.257 149.608,20.455 149.800,20.622 C149.869,20.683 149.967,20.712 150.033,20.776 C150.619,21.336 151.303,21.762 151.978,22.202 C152.610,22.613 153.236,23.037 153.861,23.460 C154.149,23.655 154.429,23.859 154.694,24.086 C155.090,24.426 155.147,24.912 154.861,25.347 C154.699,25.591 154.452,25.731 154.247,25.921 C154.072,26.084 153.877,26.228 153.681,26.367 C153.484,26.506 153.291,26.644 153.107,26.804 C152.764,27.099 152.380,27.346 152.019,27.621 C151.551,27.977 151.081,28.332 150.625,28.704 C150.362,28.918 150.202,29.193 150.295,29.557 C150.318,29.648 150.322,29.743 150.336,29.839 C150.613,30.090 150.914,30.272 151.276,30.379 C151.963,30.584 152.631,30.849 153.322,31.040 C153.766,31.163 154.199,31.316 154.638,31.453 C155.296,31.659 155.951,31.877 156.608,32.084 C156.904,32.177 157.188,32.310 157.503,32.339 C157.555,32.343 157.607,32.367 157.658,32.386 C158.001,32.513 158.345,32.641 158.705,32.775 C158.752,33.081 158.719,33.399 158.726,33.747 C158.506,33.681 158.329,33.617 158.146,33.574 C157.961,33.530 157.786,33.468 157.610,33.393 C157.363,33.286 157.092,33.239 156.833,33.159 C156.278,32.987 155.723,32.814 155.171,32.635 C154.695,32.481 154.223,32.314 153.747,32.159 C153.245,31.996 152.740,31.841 152.237,31.681 C151.450,31.431 150.664,31.181 149.878,30.929 C149.259,30.731 148.634,30.548 148.025,30.324 C147.741,30.219 147.461,30.130 147.160,30.121 C146.860,30.111 146.615,30.212 146.446,30.487 C146.322,30.690 146.272,30.899 146.228,31.129 C146.135,31.613 146.195,32.103 146.131,32.580 C146.043,33.244 146.077,33.905 146.074,34.567 C146.065,37.222 146.062,39.877 146.058,42.532 C146.057,43.019 146.045,43.508 146.145,43.989 C146.164,44.082 146.185,44.174 146.204,44.267 C146.308,44.787 146.668,45.098 147.098,45.352 C147.405,45.534 147.750,45.614 148.083,45.725 C149.084,46.058 150.089,46.381 151.093,46.704 C151.673,46.891 152.250,47.092 152.838,47.250 C153.759,47.495 154.644,47.842 155.547,48.138 C155.637,48.168 155.726,48.206 155.818,48.225 C156.566,48.379 157.265,48.685 157.989,48.909 C158.285,49.001 158.571,49.129 158.885,49.162 C158.963,49.170 159.036,49.216 159.113,49.241 C159.267,49.292 159.418,49.357 159.576,49.388 C159.930,49.456 160.153,49.347 160.319,49.035 C160.349,48.979 160.359,48.907 160.363,48.841 C160.370,48.720 160.366,48.597 160.366,48.476 C160.366,44.155 160.363,39.834 160.371,35.512 C160.372,35.089 160.269,34.684 160.232,34.268 C160.201,33.907 160.157,33.547 160.116,33.169 C160.293,33.103 160.455,33.099 160.614,33.089 C161.659,33.024 162.705,32.964 163.750,32.899 C164.429,32.857 165.108,32.810 165.786,32.768 C165.974,32.757 166.163,32.723 166.375,32.767 C166.371,32.855 166.378,32.933 166.362,33.007 C166.322,33.192 166.281,33.378 166.223,33.558 ZM136.969,49.231 C137.123,49.356 137.307,49.449 137.448,49.586 C137.710,49.839 138.011,50.041 138.290,50.273 C138.427,50.387 138.421,50.555 138.510,50.717 C138.424,50.750 138.367,50.782 138.306,50.793 C137.913,50.864 137.519,50.836 137.125,50.807 C137.060,50.802 136.995,50.773 136.932,50.750 C136.842,50.718 136.757,50.673 136.666,50.649 C135.894,50.440 135.143,50.168 134.384,49.921 C133.831,49.741 133.267,49.594 132.714,49.416 C132.119,49.226 131.531,49.013 130.937,48.818 C130.461,48.661 129.981,48.516 129.504,48.364 C129.181,48.262 128.859,48.158 128.536,48.055 C127.543,47.739 126.552,47.418 125.556,47.108 C124.834,46.883 124.104,46.679 123.382,46.452 C122.877,46.293 122.381,46.105 121.878,45.940 C121.182,45.713 120.484,45.493 119.785,45.275 C119.415,45.160 119.018,45.317 118.782,45.625 C118.614,45.842 118.577,46.090 118.541,46.344 C118.531,46.410 118.539,46.479 118.538,46.547 C118.525,47.169 118.513,47.791 118.499,48.413 C118.496,48.507 118.481,48.602 118.475,48.696 C118.461,48.911 118.442,49.127 118.439,49.343 C118.436,49.572 118.355,49.754 118.351,50.018 C118.317,50.086 118.325,50.177 118.322,50.258 C118.301,50.812 118.306,51.370 118.255,51.922 C118.221,52.294 118.138,52.679 118.121,53.040 C118.099,53.134 118.088,53.228 118.100,53.320 C118.132,53.575 118.178,53.828 118.220,54.081 C118.252,54.278 118.351,54.429 118.514,54.548 C118.644,54.643 118.754,54.763 118.878,54.866 C119.134,55.077 119.450,55.171 119.758,55.270 C120.337,55.457 120.906,55.676 121.499,55.828 C122.074,55.976 122.632,56.194 123.199,56.377 C124.075,56.659 124.978,56.905 125.869,57.190 C125.885,57.466 125.873,57.797 125.886,58.262 C125.798,58.252 125.751,58.258 125.681,58.236 C123.996,57.704 122.309,57.182 120.631,56.630 C120.093,56.454 119.547,56.300 119.022,56.081 C118.611,55.909 118.168,56.081 117.946,56.475 C117.854,56.638 117.784,56.822 117.747,57.004 C117.641,57.520 117.497,58.030 117.484,58.562 C117.482,58.629 117.461,58.695 117.447,58.760 C117.325,59.370 117.181,59.975 117.072,60.588 C116.972,61.157 116.810,61.715 116.669,62.276 C116.564,62.693 116.449,63.107 116.337,63.521 C116.305,63.638 116.262,63.752 116.226,63.869 C116.114,64.229 116.004,64.591 115.890,64.951 C115.862,65.041 115.825,65.127 115.788,65.214 C115.762,65.275 115.718,65.332 115.700,65.396 C115.443,66.294 115.028,67.129 114.647,67.977 C114.460,68.396 114.231,68.793 114.016,69.198 C113.585,70.006 113.070,70.757 112.543,71.503 C112.321,71.818 112.094,72.132 111.815,72.402 C111.690,72.523 111.645,72.703 111.492,72.810 C111.349,72.909 111.215,73.024 111.151,73.202 C111.131,73.259 111.056,73.295 111.008,73.342 C110.882,73.466 110.756,73.589 110.633,73.714 C110.502,73.849 110.403,74.018 110.205,74.077 C110.170,74.087 110.141,74.126 110.114,74.155 C109.652,74.662 109.082,75.043 108.544,75.457 C108.087,75.808 107.596,76.117 107.103,76.416 C106.864,76.561 106.634,76.726 106.367,76.832 C106.131,76.925 105.922,77.084 105.695,77.204 C105.373,77.376 105.045,77.538 104.720,77.704 C104.539,77.797 104.357,77.889 104.178,77.985 C103.803,78.185 103.409,78.332 102.988,78.390 C102.833,78.411 102.670,78.453 102.533,78.379 C102.485,78.273 102.545,78.228 102.592,78.183 C102.757,78.026 102.943,77.895 103.047,77.675 C103.101,77.561 103.238,77.487 103.335,77.393 C103.461,77.272 103.599,77.171 103.676,76.998 C103.726,76.883 103.856,76.800 103.958,76.711 C104.091,76.595 104.201,76.466 104.298,76.315 C104.464,76.057 104.675,75.827 104.839,75.568 C105.052,75.231 105.272,74.899 105.490,74.566 C105.636,74.343 105.757,74.104 105.893,73.874 C106.056,73.598 106.196,73.311 106.326,73.019 C106.421,72.810 106.532,72.608 106.635,72.402 C106.822,72.030 107.040,71.673 107.192,71.284 C107.533,70.408 107.976,69.576 108.262,68.677 C108.425,68.163 108.645,67.668 108.839,67.165 C108.925,66.939 109.018,66.716 109.094,66.487 C109.382,65.630 109.669,64.773 109.944,63.912 C110.038,63.618 110.065,63.301 110.173,63.013 C110.407,62.388 110.498,61.731 110.649,61.088 C110.802,60.443 110.938,59.793 111.081,59.146 C111.095,59.079 111.119,59.014 111.123,58.948 C111.166,58.120 111.369,57.315 111.475,56.497 C111.536,56.029 111.589,55.560 111.645,55.091 C111.702,54.626 111.784,54.163 111.848,53.698 C111.866,53.564 111.860,53.428 111.869,53.293 L112.276,44.926 C112.272,44.577 112.222,44.227 112.189,43.838 C111.949,43.749 111.748,43.670 111.544,43.600 C110.786,43.341 110.027,43.081 109.266,42.830 C109.100,42.775 108.913,42.776 108.751,42.712 C108.033,42.430 107.284,42.243 106.561,41.977 C106.523,41.963 106.488,41.935 106.450,41.929 C105.988,41.865 105.579,41.638 105.137,41.515 C104.694,41.391 104.265,41.219 103.826,41.080 C103.388,40.942 102.945,40.820 102.493,40.689 C102.462,40.592 102.416,40.505 102.408,40.415 C102.361,39.875 102.391,39.335 102.400,38.795 C102.582,38.726 102.716,38.817 102.851,38.858 C104.526,39.372 106.200,39.891 107.875,40.410 C110.119,41.105 112.366,41.797 114.610,42.497 C115.034,42.630 115.449,42.793 115.868,42.943 C116.287,43.094 116.720,43.108 117.156,43.058 C117.335,43.038 117.561,42.760 117.550,42.551 C117.535,42.241 117.512,41.928 117.449,41.625 C117.369,41.242 117.260,40.865 117.215,40.475 C117.208,40.408 117.192,40.341 117.169,40.277 C116.967,39.730 116.866,39.157 116.725,38.594 C116.469,37.571 116.173,36.559 115.900,35.541 C115.779,35.086 115.642,34.635 115.530,34.177 C115.426,33.746 115.269,33.328 115.147,32.901 C115.000,32.384 114.867,31.863 114.724,31.344 C114.692,31.227 114.642,31.116 114.608,30.999 C114.586,30.925 114.579,30.848 114.558,30.734 C114.658,30.766 114.729,30.771 114.776,30.808 C115.201,31.139 115.696,31.366 116.110,31.718 C116.329,31.906 116.611,32.021 116.866,32.169 C117.340,32.447 117.809,32.732 118.249,33.065 C118.493,33.252 118.748,33.426 118.996,33.609 C119.190,33.752 119.358,33.929 119.561,34.052 C119.765,34.174 119.913,34.342 120.074,34.505 C120.175,34.609 120.314,34.674 120.423,34.772 C120.533,34.871 120.626,34.989 120.727,35.099 C121.242,35.662 121.749,36.227 122.136,36.894 C122.334,37.235 122.502,37.589 122.621,37.953 C122.840,38.624 122.942,39.321 122.867,40.034 C122.799,40.687 122.618,41.309 122.351,41.905 C122.265,42.098 122.125,42.270 121.997,42.442 C121.790,42.723 121.493,42.918 121.263,43.179 C121.035,43.263 120.907,43.460 120.746,43.622 C120.610,43.758 120.547,43.906 120.583,44.097 C120.602,44.189 120.610,44.284 120.621,44.359 C120.775,44.574 120.983,44.668 121.208,44.731 C121.703,44.870 122.179,45.068 122.682,45.188 C123.115,45.293 123.526,45.480 123.954,45.606 C125.174,45.966 126.389,46.341 127.585,46.775 C127.623,46.789 127.663,46.798 127.703,46.806 C128.264,46.919 128.787,47.152 129.332,47.314 C129.772,47.444 130.192,47.633 130.647,47.719 C130.871,47.762 131.082,47.869 131.300,47.944 C131.528,48.023 131.758,48.098 131.997,48.178 C132.303,47.914 132.432,47.544 132.672,47.255 C132.902,46.977 133.084,46.659 133.288,46.358 C133.528,46.374 133.661,46.569 133.827,46.691 C134.213,46.976 134.555,47.320 134.944,47.599 C135.367,47.902 135.737,48.267 136.166,48.562 C136.452,48.759 136.699,49.011 136.969,49.231 ZM100.203,28.908 C100.105,30.912 100.118,32.917 100.150,34.922 C100.163,35.788 100.175,36.655 100.175,37.522 C100.177,43.956 100.176,50.391 100.176,56.825 C100.176,56.973 100.176,57.123 100.176,57.269 C99.714,57.964 99.174,58.542 98.687,59.161 C98.209,59.769 97.731,60.378 97.235,60.972 C96.731,61.576 96.242,62.193 95.758,62.812 C95.283,63.420 94.799,64.021 94.318,64.624 C93.832,65.234 93.372,65.867 92.828,66.471 C92.766,66.300 92.848,66.178 92.872,66.055 C92.907,65.877 92.945,65.708 92.817,65.552 C92.755,65.187 92.554,64.876 92.424,64.537 C92.308,64.233 92.101,64.052 91.811,63.941 C91.799,63.936 91.785,63.932 91.772,63.928 C91.269,63.772 90.764,63.618 90.261,63.458 C89.965,63.365 89.672,63.260 89.376,63.164 C88.321,62.822 87.266,62.480 86.211,62.139 C85.672,61.965 85.132,61.794 84.597,61.623 C84.537,61.192 84.639,60.268 84.547,59.735 C84.703,59.690 84.837,59.778 84.974,59.822 C86.514,60.315 88.052,60.814 89.591,61.311 C90.936,61.745 92.281,62.179 93.626,62.612 C93.753,62.653 93.883,62.685 94.028,62.726 C94.100,62.569 94.071,62.420 94.071,62.278 L94.013,46.673 C94.012,46.393 93.906,46.179 93.767,45.964 C93.732,45.911 93.673,45.863 93.615,45.836 C93.051,45.573 92.484,45.317 91.886,45.136 C89.898,44.532 87.932,43.862 85.957,43.221 C85.106,42.945 84.252,42.684 83.400,42.413 C82.768,42.213 82.137,42.006 81.506,41.805 C81.145,41.690 80.783,41.581 80.422,41.467 C80.333,41.439 80.242,41.409 80.158,41.368 C79.833,41.211 79.480,41.167 79.130,41.140 C78.805,41.116 78.370,41.442 78.252,41.753 C78.165,41.984 78.140,42.222 78.140,42.468 C78.143,46.356 78.142,50.244 78.142,54.131 C78.142,55.649 78.142,57.166 78.143,58.683 C78.143,58.886 78.153,59.089 78.149,59.292 C78.140,59.856 78.405,60.265 78.862,60.570 C78.986,60.653 79.106,60.742 79.232,60.823 C79.299,60.867 79.371,60.909 79.447,60.935 C79.998,61.120 80.549,61.305 81.103,61.481 C81.660,61.658 82.220,61.825 82.778,61.997 C82.804,62.005 82.828,62.017 82.874,62.036 C82.807,62.416 82.920,62.633 82.900,62.965 C82.803,62.956 82.724,62.960 82.652,62.939 C82.027,62.756 81.406,62.560 80.780,62.385 C80.377,62.271 79.966,62.189 79.560,62.085 C79.350,62.032 79.140,61.971 78.936,61.897 C78.625,61.783 78.349,61.840 78.094,62.037 C77.955,62.146 77.810,62.249 77.683,62.371 C77.423,62.621 77.177,62.888 76.859,63.072 C76.206,63.747 75.414,64.260 74.722,64.890 C74.452,65.136 74.155,65.354 73.869,65.584 C73.700,65.719 73.515,65.836 73.388,66.019 C73.287,66.165 73.108,66.213 72.983,66.345 C72.774,66.565 72.514,66.738 72.292,66.918 C72.169,66.886 72.180,66.812 72.178,66.748 C72.175,66.626 72.176,66.504 72.176,66.382 C72.176,49.179 72.176,31.975 72.177,14.773 C72.177,14.599 72.180,14.426 72.182,14.268 C72.277,14.223 72.303,14.268 72.340,14.310 C72.522,14.522 72.710,14.730 72.891,14.943 C72.977,15.045 73.044,15.162 73.133,15.259 C73.215,15.348 73.301,15.422 73.367,15.531 C73.477,15.711 73.654,15.842 73.775,16.023 C73.907,16.220 74.132,16.360 74.248,16.562 C74.370,16.776 74.580,16.906 74.696,17.126 C74.787,17.296 74.968,17.411 75.082,17.584 C75.211,17.782 75.417,17.929 75.559,18.121 C75.671,18.272 75.818,18.400 75.916,18.551 C76.081,18.806 76.327,18.977 76.513,19.209 C76.618,19.340 76.791,19.415 76.918,19.532 C77.047,19.652 77.134,19.836 77.281,19.912 C77.578,20.065 77.737,20.368 78.030,20.522 C78.456,20.744 78.828,21.066 79.301,21.206 C79.457,21.252 79.605,21.325 79.759,21.377 C80.117,21.499 80.471,21.643 80.838,21.730 C81.528,21.894 82.178,22.177 82.854,22.379 C83.140,22.464 83.418,22.579 83.704,22.667 C84.156,22.807 84.612,22.937 85.067,23.070 C85.145,23.093 85.225,23.108 85.302,23.134 C86.191,23.430 87.081,23.726 87.969,24.025 C88.368,24.160 88.765,24.302 89.163,24.438 C89.304,24.487 89.445,24.540 89.590,24.574 C90.332,24.747 91.042,25.017 91.763,25.257 C92.417,25.476 93.073,25.684 93.725,25.909 C93.916,25.975 94.088,25.975 94.276,25.905 C94.569,25.797 94.876,25.749 95.191,25.747 C95.311,25.746 95.431,25.717 95.551,25.700 C95.631,25.690 95.712,25.675 95.793,25.671 C96.173,25.647 96.553,25.626 96.933,25.606 C97.993,25.550 99.053,25.495 100.112,25.443 C100.244,25.437 100.383,25.397 100.530,25.487 C100.521,25.598 100.519,25.719 100.500,25.837 C100.335,26.854 100.253,27.880 100.203,28.908 ZM94.078,28.468 C94.079,28.084 94.027,27.713 93.951,27.343 C93.897,27.081 93.731,26.875 93.510,26.739 C93.327,26.628 93.116,26.560 92.911,26.491 C91.986,26.181 91.062,25.870 90.132,25.575 C88.658,25.108 87.193,24.611 85.713,24.158 C84.550,23.802 83.398,23.408 82.242,23.029 C81.945,22.932 81.654,22.823 81.345,22.765 C81.186,22.735 81.036,22.664 80.882,22.612 C80.574,22.506 80.270,22.383 79.956,22.300 C79.695,22.232 79.421,22.178 79.153,22.177 C78.626,22.177 78.285,22.476 78.214,22.948 C78.168,23.254 78.146,23.567 78.145,23.877 C78.141,27.615 78.144,31.353 78.141,35.091 C78.141,35.605 78.125,36.120 78.107,36.634 C78.086,37.230 78.090,37.825 78.153,38.420 C78.185,38.717 78.241,39.009 78.361,39.285 C78.403,39.383 78.449,39.504 78.531,39.555 C78.805,39.725 79.030,39.962 79.338,40.088 C79.677,40.226 80.026,40.331 80.372,40.444 C80.847,40.600 81.333,40.726 81.810,40.878 C82.237,41.014 82.657,41.173 83.082,41.314 C83.945,41.600 84.807,41.887 85.674,42.161 C86.513,42.426 87.356,42.674 88.198,42.931 C88.341,42.974 88.482,43.024 88.624,43.070 C89.709,43.422 90.800,43.760 91.878,44.132 C92.366,44.300 92.888,44.350 93.355,44.581 C93.367,44.588 93.381,44.588 93.394,44.591 C93.811,44.675 94.046,44.497 94.076,44.070 C94.084,43.948 94.081,43.826 94.080,43.704 C94.078,43.366 94.073,43.027 94.073,42.688 L94.078,28.468 ZM66.087,33.986 C66.070,34.825 66.072,35.665 66.072,36.505 C66.072,46.243 66.072,55.982 66.072,65.720 C66.072,65.842 66.065,65.964 66.073,66.085 C66.090,66.332 66.001,66.526 65.824,66.699 C65.681,66.837 65.559,66.998 65.434,67.154 C65.126,67.537 64.821,67.923 64.517,68.310 C64.288,68.604 64.076,68.912 63.835,69.196 C63.575,69.501 63.325,69.813 63.081,70.131 C62.804,70.491 62.498,70.830 62.224,71.190 C61.868,71.656 61.473,72.090 61.141,72.574 C60.953,72.848 60.723,73.094 60.511,73.351 C60.300,73.608 60.061,73.846 59.883,74.124 C59.776,74.291 59.619,74.392 59.502,74.537 C59.317,74.768 59.144,75.008 58.963,75.242 C58.942,75.270 58.905,75.287 58.843,75.333 C58.857,75.181 58.845,75.054 58.885,74.947 C58.941,74.795 58.925,74.653 58.890,74.509 C58.810,74.180 58.679,73.869 58.541,73.559 C58.400,73.241 58.190,72.998 57.927,72.778 C57.639,72.536 57.352,72.292 57.109,72.000 C57.001,71.869 56.837,71.784 56.705,71.671 C56.603,71.583 56.509,71.485 56.415,71.388 C56.331,71.301 56.267,71.198 56.137,71.160 C56.078,71.143 56.022,71.087 55.981,71.036 C55.726,70.717 55.409,70.464 55.104,70.196 C54.962,70.071 54.834,69.932 54.696,69.802 C54.648,69.756 54.593,69.716 54.538,69.678 C54.506,69.655 54.455,69.649 54.433,69.620 C54.168,69.271 53.801,69.025 53.509,68.706 C53.474,68.668 53.456,68.616 53.412,68.534 C53.493,68.534 53.546,68.520 53.588,68.536 C54.071,68.714 54.553,68.895 55.034,69.077 C55.578,69.282 56.119,69.492 56.664,69.694 C57.222,69.901 57.780,70.109 58.344,70.302 C58.600,70.389 58.868,70.445 59.132,70.506 C59.734,70.644 60.245,70.305 60.501,69.800 C60.587,69.630 60.637,69.448 60.644,69.254 C60.657,68.862 60.689,68.470 60.689,68.077 C60.693,64.867 60.691,61.657 60.693,58.447 C60.693,58.135 60.633,57.833 60.561,57.532 C60.536,57.427 60.521,57.320 60.497,57.190 C60.275,57.024 60.062,56.815 59.772,56.721 C59.618,56.671 59.459,56.636 59.306,56.586 C58.225,56.233 57.145,55.878 56.065,55.526 C55.989,55.501 55.904,55.502 55.825,55.484 C55.680,55.451 55.525,55.436 55.395,55.372 C55.070,55.211 54.718,55.155 54.370,55.129 C54.069,55.107 53.784,55.224 53.572,55.460 C53.379,55.675 53.240,55.915 53.191,56.208 C53.108,56.700 53.017,57.190 52.913,57.678 C52.823,58.099 52.719,58.517 52.605,58.932 C52.433,59.555 52.221,60.167 52.029,60.784 C51.681,61.901 51.135,62.925 50.610,63.959 C50.423,64.328 50.212,64.689 49.977,65.029 C49.665,65.479 49.300,65.892 48.996,66.347 C48.831,66.594 48.562,66.749 48.442,67.032 C48.408,67.112 48.309,67.164 48.242,67.230 C47.972,67.498 47.703,67.765 47.435,68.035 C47.349,68.121 47.279,68.220 47.152,68.257 C47.104,68.272 47.058,68.313 47.025,68.353 C46.668,68.781 46.190,69.063 45.759,69.399 C45.356,69.712 44.934,70.006 44.499,70.271 C43.949,70.607 43.390,70.927 42.805,71.203 C42.542,71.328 42.284,71.420 41.999,71.453 C41.976,71.456 41.949,71.438 41.904,71.424 C41.954,71.239 42.063,71.091 42.187,70.950 C42.257,70.870 42.328,70.790 42.392,70.705 C42.746,70.232 43.060,69.729 43.407,69.252 C43.887,68.592 44.235,67.866 44.579,67.135 C44.762,66.745 44.918,66.342 45.098,65.950 C45.301,65.507 45.407,65.031 45.583,64.579 C45.819,63.976 45.990,63.353 46.182,62.736 C46.274,62.441 46.343,62.139 46.413,61.838 C46.464,61.616 46.550,61.406 46.590,61.177 C46.688,60.606 46.833,60.042 46.955,59.475 C47.049,59.039 47.119,58.600 47.183,58.158 C47.268,57.571 47.440,56.996 47.571,56.415 C47.608,56.257 47.643,56.098 47.665,55.938 C47.756,55.283 47.865,54.631 47.995,53.983 C48.048,53.719 48.074,53.451 48.106,53.184 C48.170,52.663 48.236,52.143 48.289,51.621 C48.326,51.259 48.311,50.890 48.373,50.534 C48.439,50.162 48.386,49.779 48.496,49.413 C48.503,49.388 48.501,49.359 48.503,49.332 C48.529,48.779 48.569,48.227 48.579,47.674 L48.692,22.976 C48.692,22.817 48.694,22.658 48.695,22.504 C48.849,22.460 48.889,22.567 48.947,22.631 C49.569,23.313 50.189,23.997 50.809,24.680 C51.675,25.635 52.542,26.589 53.405,27.547 C53.744,27.923 54.165,28.202 54.556,28.515 C54.627,28.572 54.726,28.597 54.816,28.627 C56.659,29.240 58.503,29.853 60.348,30.462 C60.488,30.508 60.639,30.542 60.785,30.542 C61.179,30.544 61.574,30.533 61.967,30.510 C62.388,30.486 62.807,30.431 63.228,30.408 C64.192,30.356 65.157,30.316 66.122,30.273 C66.200,30.270 66.279,30.283 66.379,30.290 C66.361,30.430 66.346,30.548 66.330,30.666 C66.175,31.767 66.108,32.875 66.087,33.986 ZM60.521,31.756 C60.475,31.691 60.458,31.607 60.435,31.547 C60.176,31.396 59.966,31.272 59.755,31.151 C59.650,31.091 59.547,31.019 59.433,30.981 C58.636,30.714 57.841,30.441 57.037,30.198 C56.470,30.026 55.902,29.845 55.291,29.884 C54.962,29.905 54.679,29.988 54.497,30.278 C54.374,30.474 54.272,30.681 54.263,30.918 C54.253,31.215 54.248,31.512 54.239,31.809 C54.233,32.012 54.253,32.220 54.211,32.416 C54.138,32.750 54.126,33.086 54.127,33.424 C54.131,34.642 54.138,35.859 54.142,37.078 C54.145,37.795 54.143,38.511 54.144,39.229 C54.145,39.637 54.207,40.036 54.321,40.429 C54.380,40.627 54.461,40.784 54.615,40.938 C54.818,41.144 55.012,41.335 55.293,41.427 C55.394,41.461 55.496,41.513 55.579,41.580 C55.775,41.735 56.002,41.797 56.237,41.867 C56.872,42.058 57.497,42.278 58.127,42.486 C58.715,42.681 59.304,42.876 59.893,43.072 C59.944,43.089 59.996,43.106 60.049,43.118 C60.374,43.196 60.623,43.042 60.675,42.717 C60.698,42.571 60.692,42.420 60.692,42.271 C60.693,39.051 60.692,35.830 60.693,32.610 C60.693,32.312 60.705,32.017 60.521,31.756 ZM60.453,44.369 C60.436,44.321 60.401,44.272 60.361,44.239 C60.134,44.050 59.914,43.858 59.604,43.792 C58.992,43.662 58.399,43.464 57.809,43.257 C57.297,43.077 56.776,42.920 56.267,42.729 C55.862,42.577 55.447,42.576 55.028,42.588 C54.804,42.595 54.616,42.689 54.478,42.880 C54.314,43.105 54.207,43.345 54.206,43.627 C54.206,43.776 54.194,43.924 54.186,44.073 C54.166,44.410 54.137,44.747 54.130,45.085 L53.909,49.930 C53.864,50.578 53.816,51.226 53.780,51.875 C53.762,52.198 53.752,52.524 53.764,52.848 C53.780,53.312 53.989,53.680 54.393,53.923 C54.601,54.049 54.810,54.191 55.039,54.265 C55.373,54.373 55.698,54.500 56.025,54.624 C56.225,54.700 56.422,54.787 56.625,54.854 C57.076,55.001 57.530,55.137 57.981,55.283 C58.652,55.501 59.320,55.725 59.991,55.943 C60.280,56.037 60.437,55.957 60.588,55.686 C60.693,55.497 60.693,55.297 60.693,55.095 C60.693,53.483 60.693,51.872 60.693,50.261 C60.693,50.261 60.692,50.261 60.692,50.261 C60.692,48.636 60.685,47.011 60.697,45.387 C60.700,45.020 60.564,44.701 60.453,44.369 ZM45.160,25.917 C45.159,36.196 45.159,46.475 45.159,56.755 C45.159,57.229 45.159,57.703 45.159,58.177 C45.159,58.284 45.159,58.390 45.159,58.560 C44.709,58.466 44.337,58.340 43.965,58.221 C43.270,58.000 42.581,57.764 41.888,57.534 C41.825,57.513 41.758,57.500 41.696,57.473 C41.397,57.342 41.086,57.251 40.764,57.190 C40.658,57.170 40.555,57.132 40.452,57.097 C39.835,56.887 39.219,56.673 38.602,56.463 C38.178,56.319 37.753,56.177 37.327,56.037 C37.172,55.987 37.015,55.943 36.857,55.901 C36.622,55.840 36.375,55.816 36.165,55.674 C36.133,55.651 36.091,55.642 36.051,55.632 C35.047,55.386 34.089,54.997 33.107,54.682 C32.979,54.640 32.846,54.610 32.715,54.577 C32.570,54.542 32.420,54.522 32.280,54.475 C30.486,53.885 28.693,53.294 26.900,52.699 C26.385,52.528 25.874,52.341 25.357,52.173 C24.933,52.036 24.503,51.916 24.075,51.791 C23.659,51.669 23.249,51.529 22.834,51.405 C22.435,51.287 22.038,51.145 21.641,51.013 C20.846,50.748 20.057,50.460 19.252,50.230 C18.549,50.030 17.868,49.764 17.159,49.583 C16.872,49.509 16.593,49.401 16.311,49.307 C15.579,49.062 14.847,48.817 14.079,48.561 C14.057,48.467 14.005,48.352 14.003,48.236 C13.996,47.762 14.004,47.288 14.009,46.815 C14.009,46.791 14.031,46.767 14.044,46.742 C14.215,46.684 14.366,46.766 14.514,46.823 C14.768,46.924 15.024,47.009 15.295,47.048 C15.322,47.052 15.351,47.052 15.375,47.063 C15.726,47.245 16.109,47.329 16.483,47.446 C17.089,47.635 17.690,47.845 18.295,48.039 C19.041,48.279 19.796,48.493 20.533,48.756 C21.158,48.979 21.806,49.123 22.428,49.356 C23.064,49.595 23.717,49.786 24.362,49.997 C24.995,50.204 25.628,50.410 26.261,50.616 C26.287,50.625 26.313,50.631 26.339,50.640 C26.954,50.851 27.567,51.069 28.198,51.234 C28.538,51.323 28.869,51.448 29.204,51.555 C29.732,51.724 30.259,51.893 30.787,52.059 C30.811,52.067 30.840,52.055 30.884,52.051 C30.895,51.991 30.913,51.928 30.915,51.863 C30.920,51.715 30.918,51.566 30.918,51.417 C30.918,40.393 30.918,29.368 30.918,18.344 C30.918,18.185 30.925,18.026 30.927,17.878 C31.064,17.823 31.096,17.922 31.143,17.975 C31.747,18.655 32.348,19.337 32.950,20.018 C34.046,21.259 35.142,22.499 36.237,23.740 C36.363,23.882 36.486,24.025 36.622,24.183 C36.493,24.461 36.375,24.732 36.242,24.997 C36.149,25.183 36.105,25.370 36.105,25.580 C36.109,29.413 36.103,33.245 36.114,37.078 C36.115,37.518 36.148,37.968 36.348,38.381 C36.407,38.503 36.479,38.609 36.582,38.705 C36.749,38.861 36.893,39.042 37.079,39.248 C37.676,39.434 38.324,39.624 38.964,39.840 C39.208,39.922 39.441,39.907 39.692,39.890 C39.882,39.572 39.915,39.220 39.945,38.873 L39.968,27.011 C39.968,26.929 39.964,26.848 39.968,26.767 C39.990,26.389 39.605,25.915 39.287,25.795 C38.948,25.665 38.623,25.501 38.276,25.345 C38.272,25.188 38.263,25.041 38.263,24.895 C38.264,24.764 38.242,24.629 38.299,24.496 C38.806,24.613 39.247,24.853 39.708,25.034 C40.049,25.168 40.381,25.233 40.739,25.137 C40.842,25.109 40.953,25.103 41.061,25.099 C41.264,25.091 41.464,25.066 41.665,25.040 C42.281,24.963 42.896,24.862 43.519,24.839 C43.613,24.835 43.706,24.807 43.799,24.795 C44.190,24.744 44.581,24.693 44.972,24.647 C45.036,24.640 45.103,24.657 45.176,24.664 C45.252,24.872 45.246,25.081 45.204,25.272 C45.157,25.489 45.160,25.702 45.160,25.917 ZM39.966,42.452 C39.965,42.074 39.872,41.710 39.759,41.349 C39.658,41.027 39.366,40.930 39.143,40.750 C38.903,40.745 38.713,40.595 38.493,40.531 C38.116,40.420 37.749,40.269 37.367,40.190 C37.012,40.117 36.672,40.222 36.386,40.461 C36.356,40.486 36.325,40.521 36.315,40.558 C36.264,40.739 36.213,40.920 36.178,41.105 C36.155,41.224 36.172,41.349 36.152,41.468 L36.212,53.141 C36.246,53.371 36.322,53.593 36.526,53.730 C36.803,53.916 37.077,54.104 37.414,54.195 C37.843,54.312 38.274,54.443 38.680,54.624 C39.011,54.771 39.330,54.783 39.662,54.731 C39.904,54.449 39.969,54.127 39.969,53.778 C39.967,50.003 39.970,46.228 39.966,42.452 ZM122.561,81.480 C122.462,81.323 122.389,81.150 122.290,80.993 C122.204,80.858 122.100,80.735 122.000,80.610 C121.924,80.515 121.841,80.426 121.762,80.333 C121.684,80.242 121.613,80.144 121.528,80.060 C121.403,79.938 121.253,79.843 121.190,79.663 C121.165,79.594 121.082,79.545 121.023,79.489 C120.888,79.360 120.726,79.260 120.656,79.065 C120.628,78.986 120.527,78.931 120.458,78.866 C120.341,78.756 120.201,78.669 120.148,78.500 C120.130,78.442 120.064,78.397 120.015,78.351 C119.858,78.204 119.678,78.083 119.590,77.869 C119.558,77.790 119.451,77.743 119.387,77.674 C119.315,77.596 119.252,77.510 119.187,77.426 C119.162,77.395 119.151,77.346 119.120,77.326 C118.860,77.166 118.716,76.897 118.518,76.682 C118.243,76.385 117.962,76.093 117.692,75.791 C117.587,75.674 117.488,75.545 117.465,75.357 C117.612,75.359 117.701,75.454 117.810,75.492 C117.926,75.532 118.044,75.570 118.150,75.630 C118.773,75.985 119.428,76.278 120.066,76.605 C120.486,76.820 120.905,77.037 121.329,77.245 C121.511,77.334 121.704,77.399 121.892,77.478 C122.526,77.746 123.134,78.080 123.809,78.253 C124.648,78.468 125.215,78.241 125.672,77.648 C125.925,77.321 126.063,76.940 126.153,76.548 C126.276,76.010 126.371,75.466 126.463,74.922 C126.507,74.657 126.485,74.379 126.546,74.120 C126.655,73.657 126.607,73.181 126.711,72.716 C126.785,72.391 126.772,72.048 126.800,71.712 C126.836,71.270 126.871,70.828 126.913,70.386 C126.938,70.118 126.924,69.850 126.971,69.579 C127.035,69.209 127.027,68.828 127.057,68.452 C127.070,68.292 127.110,68.134 127.121,67.974 C127.150,67.544 127.175,67.113 127.193,66.683 C127.217,66.089 127.189,65.489 127.264,64.903 C127.355,64.202 127.324,63.497 127.396,62.800 C127.479,62.003 127.446,61.208 127.471,60.412 C127.495,59.627 127.501,58.842 127.516,58.056 C127.519,57.923 127.528,57.789 127.537,57.600 C129.656,57.494 131.732,57.389 133.808,57.287 C133.859,57.284 133.912,57.303 133.991,57.316 C133.978,57.446 133.972,57.565 133.954,57.682 C133.887,58.107 133.814,58.532 133.746,58.957 C133.681,59.368 133.613,59.780 133.556,60.192 C133.532,60.366 133.529,60.543 133.524,60.718 L133.191,69.958 C133.189,70.025 133.199,70.098 133.178,70.160 C133.018,70.631 133.075,71.124 133.038,71.606 C133.018,71.875 132.948,72.085 132.743,72.282 C132.524,72.493 132.366,72.766 132.174,73.006 C131.950,73.288 131.716,73.561 131.490,73.842 C131.215,74.184 130.943,74.528 130.672,74.873 C130.458,75.144 130.251,75.420 130.034,75.689 C129.764,76.024 129.468,76.336 129.206,76.679 C128.589,77.486 127.948,78.277 127.319,79.076 C127.009,79.470 126.707,79.871 126.395,80.264 C126.170,80.549 125.935,80.828 125.705,81.108 C125.510,81.345 125.310,81.578 125.120,81.819 C124.906,82.090 124.713,82.379 124.490,82.643 C124.112,83.091 123.713,83.521 123.359,84.005 C123.261,83.928 123.299,83.849 123.319,83.783 C123.399,83.531 123.386,83.299 123.301,83.037 C123.121,82.483 122.869,81.970 122.561,81.480 ZM140.329,93.750 L63.996,93.750 L63.996,87.650 L140.329,87.650 L140.329,93.750 ZM79.073,91.092 C78.705,91.104 78.453,91.111 78.316,91.111 C78.149,91.111 77.940,91.104 77.690,91.092 C77.654,91.210 77.610,91.334 77.559,91.464 L77.592,91.500 C77.854,91.484 78.097,91.477 78.318,91.477 C78.515,91.477 78.732,91.484 78.967,91.500 C78.994,91.384 79.036,91.261 79.093,91.131 L79.073,91.092 ZM89.795,92.380 C89.663,92.372 89.577,92.360 89.540,92.342 C89.502,92.324 89.468,92.294 89.439,92.252 C89.410,92.211 89.352,92.087 89.264,91.882 L87.961,88.865 L87.786,88.865 C87.717,89.056 87.589,89.364 87.400,89.787 L86.692,91.385 C86.565,91.670 86.440,91.936 86.319,92.182 C86.279,92.266 86.242,92.318 86.207,92.340 C86.171,92.361 86.094,92.374 85.973,92.377 L85.896,92.380 L85.896,92.541 C86.083,92.529 86.300,92.523 86.548,92.523 C86.754,92.523 86.939,92.529 87.104,92.541 L87.104,92.380 L86.857,92.351 C86.769,92.341 86.715,92.327 86.693,92.310 C86.672,92.293 86.661,92.265 86.661,92.225 C86.661,92.164 86.719,91.997 86.833,91.723 L87.008,91.310 L88.498,91.310 L88.780,92.023 C88.832,92.153 88.857,92.233 88.857,92.264 C88.857,92.293 88.844,92.317 88.819,92.336 C88.802,92.348 88.748,92.357 88.657,92.364 L88.402,92.380 L88.402,92.541 C88.716,92.529 88.967,92.523 89.156,92.523 C89.359,92.523 89.572,92.529 89.795,92.541 L89.795,92.380 ZM93.382,92.380 L93.315,92.380 C93.284,92.380 93.254,92.372 93.225,92.356 C93.195,92.341 93.137,92.278 93.050,92.169 L92.555,91.531 C92.306,91.211 92.097,90.931 91.929,90.690 C92.261,90.621 92.514,90.495 92.688,90.310 C92.862,90.126 92.949,89.913 92.949,89.672 C92.949,89.508 92.909,89.367 92.829,89.249 C92.750,89.131 92.633,89.041 92.479,88.978 C92.326,88.916 92.100,88.885 91.803,88.885 C91.695,88.885 91.517,88.889 91.270,88.898 C91.057,88.906 90.894,88.911 90.781,88.911 C90.613,88.911 90.369,88.904 90.050,88.893 L90.050,89.054 L90.189,89.054 C90.364,89.054 90.467,89.086 90.499,89.149 C90.531,89.212 90.547,89.509 90.547,90.039 L90.547,91.272 C90.547,91.882 90.533,92.219 90.505,92.283 C90.478,92.347 90.390,92.380 90.243,92.380 L90.050,92.380 L90.050,92.541 C90.436,92.529 90.703,92.523 90.850,92.523 C91.038,92.523 91.274,92.529 91.559,92.541 L91.559,92.380 L91.358,92.380 C91.198,92.380 91.104,92.346 91.074,92.281 C91.045,92.215 91.031,91.881 91.031,91.277 L91.031,90.039 C91.031,89.729 91.041,89.439 91.062,89.167 C91.244,89.100 91.425,89.067 91.605,89.067 C91.864,89.067 92.063,89.129 92.200,89.253 C92.337,89.377 92.406,89.549 92.406,89.769 C92.406,90.015 92.325,90.212 92.162,90.359 C92.000,90.506 91.776,90.580 91.489,90.580 C91.441,90.580 91.367,90.575 91.268,90.567 L91.242,90.654 C91.436,90.870 91.618,91.090 91.788,91.316 L92.700,92.541 C92.807,92.529 92.911,92.523 93.008,92.523 C93.115,92.523 93.239,92.529 93.382,92.541 L93.382,92.380 ZM97.223,92.380 C97.146,92.380 97.091,92.374 97.058,92.364 C97.024,92.354 96.991,92.332 96.958,92.300 L96.799,92.148 L95.043,90.521 L96.026,89.621 C96.337,89.337 96.535,89.172 96.621,89.125 C96.707,89.078 96.811,89.054 96.935,89.054 L97.074,89.054 L97.074,88.893 C96.918,88.904 96.775,88.911 96.647,88.911 C96.523,88.911 96.367,88.904 96.178,88.893 L96.178,89.072 L95.447,89.826 C95.215,90.063 95.049,90.230 94.947,90.325 C94.846,90.420 94.725,90.524 94.584,90.639 L94.548,90.639 L94.548,89.946 C94.548,89.572 94.552,89.346 94.560,89.267 C94.568,89.188 94.587,89.136 94.618,89.109 C94.649,89.083 94.723,89.067 94.841,89.062 L95.045,89.054 L95.045,88.893 C94.617,88.904 94.352,88.911 94.251,88.911 C94.110,88.911 93.882,88.904 93.567,88.893 L93.567,89.054 L93.776,89.054 C93.913,89.054 93.995,89.084 94.023,89.143 C94.050,89.201 94.064,89.466 94.064,89.936 L94.064,91.651 C94.064,92.036 94.050,92.253 94.023,92.304 C93.995,92.354 93.913,92.380 93.776,92.380 L93.567,92.380 L93.567,92.541 C93.828,92.529 94.072,92.523 94.300,92.523 C94.516,92.523 94.765,92.529 95.045,92.541 L95.045,92.380 L94.851,92.380 C94.690,92.380 94.597,92.349 94.571,92.287 C94.556,92.251 94.548,92.042 94.548,91.661 L94.548,90.879 C94.548,90.813 94.566,90.780 94.602,90.780 C94.616,90.780 94.653,90.808 94.713,90.864 L96.487,92.541 C96.619,92.529 96.741,92.523 96.853,92.523 C96.959,92.523 97.083,92.529 97.223,92.541 L97.223,92.380 ZM101.521,88.893 C101.269,88.904 101.063,88.911 100.903,88.911 C100.750,88.911 100.536,88.904 100.259,88.893 L100.259,89.054 L100.453,89.072 C100.626,89.089 100.725,89.130 100.750,89.194 C100.775,89.258 100.787,89.635 100.787,90.323 L100.787,91.969 C100.647,91.819 100.417,91.551 100.100,91.164 L99.219,90.087 C99.058,89.889 98.902,89.692 98.752,89.496 C98.601,89.301 98.442,89.100 98.271,88.893 C98.124,88.904 97.988,88.911 97.865,88.911 C97.750,88.911 97.583,88.904 97.365,88.893 L97.365,89.054 L97.525,89.054 C97.605,89.054 97.668,89.069 97.713,89.098 C97.758,89.127 97.791,89.160 97.814,89.196 C97.838,89.233 97.851,89.301 97.854,89.400 C97.859,89.635 97.862,89.871 97.862,90.111 L97.862,91.385 C97.862,91.708 97.853,91.963 97.834,92.151 C97.825,92.242 97.804,92.303 97.769,92.333 C97.735,92.364 97.662,92.380 97.551,92.380 L97.365,92.380 L97.365,92.541 C97.742,92.529 97.983,92.523 98.087,92.523 C98.239,92.523 98.408,92.529 98.596,92.541 L98.596,92.380 L98.430,92.367 C98.294,92.354 98.212,92.335 98.183,92.309 C98.155,92.282 98.134,92.208 98.122,92.087 C98.107,91.928 98.099,91.647 98.099,91.243 L98.099,89.471 L99.950,91.748 C100.160,92.005 100.360,92.238 100.550,92.449 C100.585,92.486 100.621,92.513 100.658,92.529 C100.696,92.546 100.832,92.572 101.065,92.608 C101.038,92.175 101.024,91.803 101.024,91.492 L101.024,90.336 C101.024,89.658 101.032,89.283 101.048,89.213 C101.072,89.107 101.163,89.054 101.323,89.054 L101.521,89.054 L101.521,88.893 ZM103.267,92.380 L103.096,92.380 C102.938,92.380 102.843,92.346 102.814,92.278 C102.785,92.211 102.770,91.844 102.770,91.179 L102.770,90.295 C102.770,89.827 102.774,89.501 102.783,89.318 C102.788,89.200 102.806,89.127 102.837,89.098 C102.868,89.069 102.945,89.054 103.068,89.054 L103.267,89.054 L103.267,88.893 C103.078,88.904 102.867,88.911 102.635,88.911 C102.356,88.911 102.074,88.904 101.789,88.893 L101.789,89.054 L101.997,89.054 C102.135,89.054 102.217,89.089 102.245,89.160 C102.272,89.229 102.286,89.606 102.286,90.290 L102.286,91.159 C102.286,91.819 102.270,92.187 102.238,92.264 C102.207,92.341 102.111,92.380 101.951,92.380 L101.789,92.380 L101.789,92.541 C102.023,92.529 102.285,92.523 102.576,92.523 C102.825,92.523 103.055,92.529 103.267,92.541 L103.267,92.380 ZM107.274,91.082 C107.155,91.099 107.014,91.108 106.849,91.108 C106.658,91.108 106.366,91.099 105.973,91.082 L105.973,91.244 L106.277,91.269 C106.439,91.283 106.528,91.295 106.546,91.304 C106.564,91.313 106.577,91.334 106.584,91.365 C106.590,91.398 106.594,91.518 106.594,91.729 C106.594,91.892 106.589,92.045 106.579,92.189 C106.254,92.311 105.953,92.372 105.675,92.372 C105.141,92.372 104.719,92.184 104.410,91.808 C104.148,91.490 104.016,91.098 104.016,90.634 C104.016,90.150 104.162,89.761 104.454,89.467 C104.722,89.197 105.108,89.062 105.613,89.062 C105.898,89.062 106.151,89.102 106.373,89.184 C106.594,89.265 106.730,89.333 106.782,89.388 C106.809,89.417 106.823,89.515 106.823,89.683 L106.823,89.851 L106.985,89.851 C107.012,89.527 107.048,89.274 107.094,89.093 L106.875,89.033 C106.607,88.957 106.390,88.905 106.223,88.880 C106.056,88.854 105.874,88.842 105.677,88.842 C105.193,88.842 104.793,88.921 104.477,89.081 C104.161,89.241 103.915,89.465 103.738,89.753 C103.562,90.041 103.473,90.369 103.473,90.739 C103.473,91.096 103.555,91.415 103.720,91.696 C103.885,91.977 104.121,92.197 104.427,92.355 C104.733,92.513 105.089,92.592 105.494,92.592 C105.757,92.592 106.032,92.565 106.320,92.511 C106.607,92.458 106.865,92.386 107.094,92.298 C107.068,92.101 107.055,91.924 107.055,91.767 C107.055,91.618 107.068,91.472 107.094,91.328 L107.274,91.210 L107.274,91.082 ZM111.716,92.380 L111.515,92.380 C111.357,92.380 111.263,92.349 111.233,92.288 C111.203,92.227 111.188,91.935 111.188,91.410 L111.188,89.992 C111.188,89.581 111.192,89.336 111.199,89.258 C111.207,89.180 111.229,89.127 111.266,89.098 C111.303,89.069 111.388,89.054 111.520,89.054 L111.716,89.054 L111.716,88.893 C111.441,88.904 111.177,88.911 110.922,88.911 C110.687,88.911 110.438,88.904 110.176,88.893 L110.176,89.054 L110.361,89.054 C110.483,89.054 110.564,89.070 110.603,89.100 C110.643,89.131 110.666,89.182 110.673,89.252 C110.693,89.451 110.703,89.696 110.703,89.989 L110.703,90.490 C110.453,90.502 110.128,90.508 109.728,90.508 C109.256,90.508 108.867,90.502 108.561,90.490 L108.561,89.904 C108.561,89.541 108.568,89.313 108.582,89.218 C108.590,89.161 108.614,89.118 108.651,89.093 C108.689,89.067 108.788,89.054 108.948,89.054 L109.058,89.054 L109.058,88.893 C108.825,88.904 108.585,88.911 108.340,88.911 C108.096,88.911 107.832,88.904 107.549,88.893 L107.549,89.054 L107.740,89.054 C107.898,89.054 107.993,89.084 108.027,89.145 C108.061,89.206 108.077,89.460 108.077,89.908 L108.077,91.454 C108.077,91.950 108.061,92.227 108.028,92.288 C107.995,92.349 107.889,92.380 107.709,92.380 L107.549,92.380 L107.549,92.541 C107.924,92.529 108.211,92.523 108.412,92.523 C108.620,92.523 108.835,92.529 109.058,92.541 L109.058,92.380 L108.883,92.380 C108.787,92.380 108.717,92.367 108.674,92.341 C108.631,92.315 108.607,92.290 108.600,92.265 C108.593,92.240 108.584,92.111 108.574,91.879 C108.565,91.713 108.561,91.568 108.561,91.445 L108.561,90.728 C108.836,90.717 109.241,90.711 109.777,90.711 C110.152,90.711 110.461,90.717 110.703,90.728 L110.703,91.396 C110.703,91.733 110.694,91.990 110.675,92.166 C110.667,92.248 110.643,92.304 110.606,92.334 C110.568,92.364 110.484,92.380 110.353,92.380 L110.176,92.380 L110.176,92.541 C110.425,92.529 110.693,92.523 110.982,92.523 C111.234,92.523 111.479,92.529 111.716,92.541 L111.716,92.380 ZM113.544,88.911 C113.381,88.911 112.836,88.904 111.909,88.893 C111.929,89.123 111.940,89.300 111.940,89.423 L111.934,89.728 L112.097,89.728 L112.132,89.385 C112.146,89.251 112.174,89.175 112.217,89.156 C112.260,89.136 112.493,89.126 112.916,89.126 L113.178,89.126 C113.190,89.367 113.196,89.632 113.196,89.921 L113.196,91.385 C113.196,91.701 113.187,91.959 113.170,92.159 C113.162,92.246 113.140,92.304 113.106,92.334 C113.072,92.364 112.998,92.380 112.885,92.380 L112.668,92.380 L112.668,92.541 C112.967,92.529 113.223,92.523 113.435,92.523 C113.647,92.523 113.904,92.529 114.208,92.541 L114.208,92.380 L114.015,92.380 C113.847,92.380 113.749,92.352 113.721,92.296 C113.694,92.241 113.680,91.941 113.680,91.398 L113.680,89.936 C113.680,89.653 113.690,89.382 113.709,89.126 L113.909,89.126 C114.150,89.126 114.364,89.133 114.553,89.147 C114.618,89.152 114.660,89.165 114.679,89.186 C114.698,89.208 114.713,89.276 114.723,89.393 L114.749,89.728 L114.911,89.728 C114.916,89.460 114.935,89.182 114.968,88.893 L113.544,88.911 ZM117.637,90.889 C117.562,90.764 117.462,90.674 117.338,90.617 C117.214,90.561 116.974,90.515 116.621,90.481 C116.267,90.448 116.036,90.409 115.927,90.366 C115.818,90.323 115.731,90.251 115.667,90.154 C115.603,90.056 115.570,89.938 115.570,89.801 C115.570,89.585 115.649,89.408 115.806,89.269 C115.963,89.131 116.179,89.062 116.453,89.062 C116.622,89.062 116.782,89.089 116.934,89.143 C117.086,89.196 117.180,89.247 117.216,89.295 C117.252,89.343 117.270,89.434 117.270,89.567 L117.270,89.772 L117.448,89.772 C117.451,89.478 117.477,89.242 117.525,89.064 C117.351,88.989 117.178,88.933 117.006,88.897 C116.833,88.860 116.661,88.842 116.490,88.842 C116.062,88.842 115.727,88.947 115.485,89.160 C115.243,89.371 115.122,89.644 115.122,89.977 C115.122,90.174 115.162,90.338 115.241,90.471 C115.319,90.603 115.429,90.700 115.568,90.762 C115.707,90.823 115.970,90.870 116.358,90.900 C116.650,90.924 116.850,90.959 116.958,91.005 C117.066,91.051 117.150,91.122 117.211,91.217 C117.271,91.312 117.301,91.428 117.301,91.564 C117.301,91.798 117.212,91.991 117.035,92.143 C116.858,92.296 116.608,92.372 116.283,92.372 C116.133,92.372 115.991,92.354 115.861,92.319 C115.731,92.284 115.618,92.233 115.524,92.167 C115.460,92.122 115.420,92.080 115.403,92.041 C115.386,92.002 115.377,91.899 115.377,91.733 L115.377,91.605 L115.202,91.605 C115.204,91.926 115.189,92.190 115.158,92.395 C115.328,92.460 115.497,92.509 115.664,92.542 C115.832,92.576 115.998,92.592 116.162,92.592 C116.643,92.592 117.028,92.468 117.316,92.220 C117.604,91.972 117.749,91.676 117.749,91.333 C117.749,91.162 117.711,91.014 117.637,90.889 ZM126.038,91.092 C125.670,91.104 125.418,91.111 125.280,91.111 C125.114,91.111 124.905,91.104 124.655,91.092 C124.619,91.210 124.575,91.334 124.523,91.464 L124.557,91.500 C124.820,91.484 125.062,91.477 125.283,91.477 C125.481,91.477 125.697,91.484 125.932,91.500 C125.959,91.384 126.001,91.261 126.058,91.131 L126.038,91.092 ZM87.753,89.560 L88.401,91.100 L87.104,91.100 L87.753,89.560 ZM148.953,49.555 C149.518,49.862 150.107,50.133 150.642,50.485 C151.131,50.806 151.649,51.069 152.143,51.378 C152.369,51.520 152.580,51.688 152.794,51.849 C152.986,51.994 153.162,52.162 153.365,52.287 C153.519,52.382 153.651,52.489 153.760,52.629 C153.785,52.661 153.810,52.702 153.844,52.715 C154.126,52.826 154.272,53.083 154.473,53.279 C154.589,53.392 154.703,53.508 154.823,53.618 C154.922,53.709 155.017,53.793 155.081,53.923 C155.162,54.088 155.381,54.156 155.432,54.356 C155.784,54.782 156.063,55.252 156.284,55.758 C156.522,56.304 156.700,56.864 156.766,57.458 C156.785,57.631 156.825,57.803 156.831,57.976 C156.848,58.476 156.754,58.963 156.660,59.453 C156.548,60.042 156.270,60.543 155.940,61.026 C155.856,61.148 155.757,61.262 155.654,61.369 C155.494,61.533 155.335,61.706 155.093,61.755 C154.748,62.016 154.323,62.058 153.924,62.172 C153.848,62.194 153.762,62.201 153.683,62.195 C153.299,62.163 152.941,62.044 152.618,61.834 C152.394,61.689 152.264,61.463 152.158,61.231 C152.051,60.999 151.971,60.755 151.894,60.511 C151.825,60.293 151.777,60.069 151.720,59.847 C151.700,59.768 151.686,59.688 151.662,59.611 C151.496,59.068 151.326,58.526 151.161,57.982 C151.083,57.724 150.966,57.475 150.975,57.196 C150.976,57.157 150.959,57.117 150.947,57.078 C150.576,55.862 150.206,54.646 149.833,53.431 C149.769,53.224 149.690,53.022 149.624,52.815 C149.559,52.609 149.504,52.401 149.443,52.194 C149.400,52.052 149.353,51.911 149.311,51.770 C149.241,51.537 149.163,51.307 149.109,51.071 C149.070,50.898 149.009,50.738 148.943,50.574 C148.793,50.201 148.669,49.818 148.538,49.438 C148.531,49.418 148.552,49.389 148.568,49.340 C148.699,49.413 148.825,49.485 148.953,49.555 Z"></path></use></svg>